<svg width="100" height="154" viewBox="0 0 100 154" fill="none" xmlns="http://www.w3.org/2000/svg">
<path d="M76.1074 153.536C76.0003 153.548 75.8291 153.296 75.1238 151.216C74.9436 151.057 74.3722 149.231 72.1653 142.816C70.2325 137.198 66.4734 126.303 63.8117 118.604C61.1501 110.905 50.9512 81.3777 50.9512 81.3777C50.9512 81.3777 39.1433 47.1818 36.4555 39.3846C33.8096 31.709 32.0017 28.2095 31.8347 27.8731C30.6679 25.523 27.9579 22.8719 25.3064 21.1142C20.7617 18.1014 14.1544 15.657 6.64829 13.9067C6.26173 13.8102 6.00491 13.7267 5.79045 13.7267C5.79045 13.5253 5.46728 13.6824 18.0294 6.5725L29.642 0L30.8155 0.216907C35.5498 1.09204 41.2588 2.98949 45.7585 5.18337C50.4406 7.4662 53.1973 9.78691 55.5568 13.432C57.0945 15.8076 57.8179 17.475 59.7577 23.1142C60.8756 26.3643 64.8501 37.8786 71.4329 56.9385C72.1803 59.1024 73.1536 61.9285 73.5958 63.2185C74.038 64.5086 77.0341 73.191 80.2539 82.5127C94.9698 125.117 100.004 139.785 100 140.042C99.9966 140.245 98.9907 140.885 96.255 142.426C92.4566 144.565 88.3344 146.898 80.7243 151.216C78.4008 152.534 76.4156 153.548 76.1074 153.536C75.8927 153.56 75.9604 153.581 76.1074 153.536ZM54.36 146.366C54.3107 146.238 54.3042 146.099 54.3454 146.057C54.3868 146.016 54.4569 146.121 54.5013 146.291C54.5956 146.652 54.4909 146.707 54.36 146.366Z" fill="#CFF4FF"/>
<path d="M65.2222 150.15C59.4491 148.288 54.7018 146.741 54.6726 146.712C54.6434 146.683 53.1286 142.1 51.3063 136.528C49.484 130.956 45.6058 119.111 42.6882 110.205C39.7705 101.3 36.9789 93.1831 36.6729 92.2259C36.3668 91.2688 36.089 90.574 36.0295 90.5101C35.9699 90.4462 35.8067 91.3208 35.4635 92.5499C35.1202 93.779 33.4731 99.6143 31.8008 105.524C30.1286 111.433 27.9385 119.051 26.9774 122.463C26.0162 125.875 24.7792 130.327 24.2052 132.356C23.6312 134.385 23.1781 136.102 23.2216 136.172C23.2216 136.172 21.6905 136.165 11.3598 132.841C5.17357 130.851 0.0706727 129.181 0.0200114 129.13C-0.0306503 129.08 0.0182512 128.784 0.128662 128.474C0.388225 127.746 7.09564 109.419 17.2987 81.5598C21.7581 69.3835 25.4067 59.3458 25.4067 59.2539C25.4067 59.1619 23.9358 54.9601 22.138 49.9166C16.0098 32.7247 16.3018 33.4213 14.4537 31.5836C13.0705 30.2081 11.5501 29.387 8.42554 28.3282C6.40017 27.6418 6.34702 27.6126 6.27732 27.1488C6.18921 26.5623 5.72623 13.7909 5.79045 13.7267C5.84016 13.6769 9.1634 14.5403 10.1861 14.8029C12.0709 15.2868 16.054 16.5931 18.0147 17.3728C25.121 20.1986 30.239 24.4506 31.8347 27.8731C32.0017 28.2095 33.8096 31.709 36.4555 39.3846C39.1433 47.1818 50.9512 81.3777 50.9512 81.3777C50.9512 81.3777 61.1501 110.905 63.8117 118.604C66.4734 126.303 70.2325 137.198 72.1653 142.816C74.4895 149.572 75.7814 153.121 75.9807 153.296C75.9663 153.455 76.266 153.56 76.0003 153.548C75.8454 153.541 70.9953 152.012 65.2222 150.15Z" fill="#2395F3"/>
<path d="M23.2282 135.908C23.2711 135.762 24.2341 132.119 25.6317 127.237C28.0944 118.178 28.1116 118.564 32.0993 104.469C33.6065 99.1428 35.1203 93.779 35.4635 92.5499C35.8067 91.3208 35.9699 90.4462 36.0295 90.5101C36.0898 90.574 36.4114 91.4 36.7431 92.4404C37.0748 93.4808 39.6039 100.721 42.1596 108.532C45.1032 117.529 46.8429 122.485 46.7525 122.682C46.5972 122.837 23.4099 136.209 23.2216 136.172C23.1823 136.172 23.1853 136.053 23.2282 135.908Z" fill="#332EA5"/>
</svg>
